<svg width="711pt" height="250pt" viewBox="0 0 711 250" xmlns="http://www.w3.org/2000/svg"><g id="fontsvg1699259734841" stroke-linecap="round" fill-rule="evenodd" stroke="#559d9a" stroke-width="0mm" fill="#e4e4e4"><path d="M 505 187.5 L 469 125 L 541.25 125 L 577.25 187.5 L 541.25 250 L 396.75 250 L 360.75 187.5 L 469 0 L 613.25 0 L 649.5 62.5 L 505 62.5 L 433 187.5 L 505 187.5 Z M 360.75 0 L 397 62.5 L 288.75 250 L 216.5 125 L 180.5 187.5 L 216.5 250 L 144.25 250 L 108.25 187.5 L 216.5 0 L 288.75 125 L 360.75 0 Z M 108.25 0 L 144.25 62.5 L 72.25 187.5 L 108.25 250 L 36 250 L 0 187.5 L 108.25 0 Z M 641.25 250 L 612.5 200 L 681.25 200 L 710.25 250 L 641.25 250 Z" vector-effect="non-scaling-stroke"/></g></svg>