<svg width="428pt" height="91pt" viewBox="0 0 428 91" xmlns="http://www.w3.org/2000/svg"><g id="fontsvg1699259844917" stroke-linecap="round" fill-rule="evenodd" stroke="#559d9a" stroke-width="0mm" fill="#5f5f5f"><path d="M 34.83 24.872 Q 34.83 22.472 33.15 22.472 A 3.205 3.205 0 0 0 32.614 22.521 Q 32.167 22.597 31.63 22.792 A 33.023 33.023 0 0 1 30.562 23.161 A 27.799 27.799 0 0 1 29.95 23.352 Q 27.554 24.647 26.023 26.126 A 11.41 11.41 0 0 0 25.35 26.832 A 54.862 54.862 0 0 0 23.285 29.353 A 67.441 67.441 0 0 0 22.03 31.032 Q 20.35 33.352 19.15 35.992 Q 17.95 38.632 17.31 40.952 A 28.49 28.49 0 0 0 16.814 43.087 Q 15.661 49.162 18.36 51.866 A 5.874 5.874 0 0 0 19.07 52.472 A 6.374 6.374 0 0 0 20.797 53.361 Q 21.631 53.633 22.509 53.633 A 5.692 5.692 0 0 0 22.63 53.632 A 8.317 8.317 0 0 0 23.889 53.515 Q 24.927 53.333 25.67 52.872 A 73.277 73.277 0 0 1 27.88 51.552 A 67.229 67.229 0 0 1 27.95 51.512 A 7.625 7.625 0 0 1 29.49 50.853 A 9.72 9.72 0 0 1 30.55 50.592 A 4.761 4.761 0 0 1 31.231 50.515 Q 32.511 50.46 34.23 50.992 A 7.95 7.95 0 0 1 35.088 51.307 Q 35.945 51.685 36.317 52.168 A 1.318 1.318 0 0 1 36.59 52.792 Q 36.75 53.912 36.59 55.112 A 10.586 10.586 0 0 0 36.513 55.919 Q 36.472 56.646 36.55 57.272 A 1.1 1.1 0 0 0 37.081 58.08 Q 37.508 58.358 38.27 58.472 Q 39.593 60.143 37.159 62.42 A 12.864 12.864 0 0 1 36.35 63.112 Q 35.47 63.832 34.67 64.472 Q 27.79 68.872 20.03 69.352 A 20.057 20.057 0 0 1 18.718 69.395 Q 16.163 69.395 13.438 68.759 A 30.381 30.381 0 0 1 9.63 67.592 Q 1.39 64.472 0.35 53.592 A 39.149 39.149 0 0 1 0 48.351 Q 0 42.874 1.503 37.191 A 52.439 52.439 0 0 1 2.91 32.712 Q 6.19 23.592 12.83 15.832 Q 18.83 8.712 24.67 6.552 A 26.049 26.049 0 0 1 36.809 3.606 A 29.433 29.433 0 0 1 39.71 3.752 A 20.15 20.15 0 0 1 44.057 4.781 Q 46.767 5.778 48.563 7.554 A 10.843 10.843 0 0 1 50.91 11.032 A 14.234 14.234 0 0 1 52.032 16.191 Q 52.167 20.075 50.471 24.695 A 34.747 34.747 0 0 1 50.03 25.832 A 8.677 8.677 0 0 1 47.037 29.656 A 11.875 11.875 0 0 1 45.47 30.632 Q 42.59 32.232 39.23 32.232 Q 37.41 32.232 36.294 31.61 A 3.177 3.177 0 0 1 34.91 30.112 A 5.653 5.653 0 0 1 34.445 28.341 Q 34.295 26.871 34.779 25.058 A 13.737 13.737 0 0 1 34.83 24.872 Z M 286.19 24.872 Q 286.19 22.472 284.51 22.472 A 3.205 3.205 0 0 0 283.974 22.521 Q 283.527 22.597 282.99 22.792 A 33.023 33.023 0 0 1 281.922 23.161 A 27.799 27.799 0 0 1 281.31 23.352 Q 278.914 24.647 277.383 26.126 A 11.41 11.41 0 0 0 276.71 26.832 A 54.862 54.862 0 0 0 274.645 29.353 A 67.441 67.441 0 0 0 273.39 31.032 Q 271.71 33.352 270.51 35.992 Q 269.31 38.632 268.67 40.952 A 28.49 28.49 0 0 0 268.174 43.087 Q 267.021 49.162 269.72 51.866 A 5.874 5.874 0 0 0 270.43 52.472 A 6.374 6.374 0 0 0 272.157 53.361 Q 272.991 53.633 273.869 53.633 A 5.692 5.692 0 0 0 273.99 53.632 A 8.317 8.317 0 0 0 275.249 53.515 Q 276.287 53.333 277.03 52.872 A 73.277 73.277 0 0 1 279.24 51.552 A 67.229 67.229 0 0 1 279.31 51.512 A 7.625 7.625 0 0 1 280.85 50.853 A 9.72 9.72 0 0 1 281.91 50.592 A 4.761 4.761 0 0 1 282.591 50.515 Q 283.871 50.46 285.59 50.992 A 7.95 7.95 0 0 1 286.448 51.307 Q 287.305 51.685 287.677 52.168 A 1.318 1.318 0 0 1 287.95 52.792 Q 288.11 53.912 287.95 55.112 A 10.586 10.586 0 0 0 287.873 55.919 Q 287.832 56.646 287.91 57.272 A 1.1 1.1 0 0 0 288.441 58.08 Q 288.868 58.358 289.63 58.472 Q 290.953 60.143 288.519 62.42 A 12.864 12.864 0 0 1 287.71 63.112 Q 286.83 63.832 286.03 64.472 Q 279.15 68.872 271.39 69.352 A 20.057 20.057 0 0 1 270.078 69.395 Q 267.523 69.395 264.798 68.759 A 30.381 30.381 0 0 1 260.99 67.592 Q 252.75 64.472 251.71 53.592 A 39.149 39.149 0 0 1 251.36 48.351 Q 251.36 42.874 252.863 37.191 A 52.439 52.439 0 0 1 254.27 32.712 Q 257.55 23.592 264.19 15.832 Q 270.19 8.712 276.03 6.552 A 26.049 26.049 0 0 1 288.169 3.606 A 29.433 29.433 0 0 1 291.07 3.752 A 20.15 20.15 0 0 1 295.417 4.781 Q 298.127 5.778 299.923 7.554 A 10.843 10.843 0 0 1 302.27 11.032 A 14.234 14.234 0 0 1 303.392 16.191 Q 303.527 20.075 301.831 24.695 A 34.747 34.747 0 0 1 301.39 25.832 A 8.677 8.677 0 0 1 298.397 29.656 A 11.875 11.875 0 0 1 296.83 30.632 Q 293.95 32.232 290.59 32.232 Q 288.77 32.232 287.654 31.61 A 3.177 3.177 0 0 1 286.27 30.112 A 5.653 5.653 0 0 1 285.805 28.341 Q 285.655 26.871 286.139 25.058 A 13.737 13.737 0 0 1 286.19 24.872 Z M 355.79 31.592 L 357.31 31.992 Q 361.31 25.992 368.43 24.792 Q 370.025 24.517 372.131 24.355 A 68.58 68.58 0 0 1 374.15 24.232 Q 377.55 24.072 379.99 25.752 Q 382.43 27.432 383.63 30.072 A 14.426 14.426 0 0 1 384.727 34.16 Q 385.016 36.525 384.673 39.278 A 29.544 29.544 0 0 1 384.27 41.672 Q 383.47 45.432 382.35 49.952 Q 381.23 54.472 378.99 58.872 A 35.462 35.462 0 0 1 373.705 66.508 A 39.835 39.835 0 0 1 373.15 67.112 A 22.914 22.914 0 0 1 367.651 71.375 A 29.803 29.803 0 0 1 363.79 73.192 A 17.754 17.754 0 0 1 361.745 73.868 Q 359.547 74.441 357.75 74.192 Q 355.15 73.832 353.87 73.112 Q 352.59 72.392 352.11 71.032 Q 350.51 75.592 349.11 80.272 Q 347.71 84.952 345.39 89.192 A 10.2 10.2 0 0 1 343.518 90.138 Q 342.576 90.504 341.47 90.752 A 8.537 8.537 0 0 1 339.599 90.963 A 8.317 8.317 0 0 1 336.91 90.512 A 5.989 5.989 0 0 1 335.086 89.538 A 5.25 5.25 0 0 1 333.67 87.792 Q 332.67 85.832 332.67 83.512 A 16.373 16.373 0 0 1 332.883 80.988 Q 333.083 79.71 333.472 78.264 A 38.15 38.15 0 0 1 334.19 75.912 Q 335.905 70.828 337.128 67.526 A 122.684 122.684 0 0 1 337.83 65.672 A 1257.566 1257.566 0 0 0 338.395 64.217 Q 339.102 62.394 339.45 61.472 A 75.593 75.593 0 0 0 339.63 60.992 Q 340.03 59.912 340.43 58.712 Q 342.19 54.072 343.03 51.152 Q 343.608 49.144 344.129 47.496 A 95.405 95.405 0 0 1 344.59 46.072 L 344.59 45.992 A 37.781 37.781 0 0 1 345.761 41.952 A 49.472 49.472 0 0 1 347.11 38.512 Q 348.486 35.344 349.171 34.147 A 5.354 5.354 0 0 1 349.47 33.672 Q 350.611 32.531 351.808 32.122 A 4.341 4.341 0 0 1 352.27 31.992 A 16.073 16.073 0 0 1 353.804 31.733 Q 354.627 31.632 355.55 31.592 L 355.79 31.592 Z M 208.253 69.825 A 20.707 20.707 0 0 0 213.71 66.632 A 89.072 89.072 0 0 1 213.94 66.449 Q 214.292 66.169 214.686 65.861 A 152.185 152.185 0 0 1 215.55 65.192 Q 219.95 61.832 219.55 59.592 Q 221.87 52.712 218.59 47.112 Q 216.19 43.032 210.03 38.792 A 3.92 3.92 0 0 0 210.214 38.708 Q 210.59 38.523 210.59 38.392 A 0.194 0.194 0 0 1 210.582 38.336 Q 210.582 37.68 215.144 36.918 A 85.616 85.616 0 0 1 216.99 36.632 Q 219.3 36.037 220.722 35.013 A 5.133 5.133 0 0 0 222.91 31.672 A 5.656 5.656 0 0 0 222.973 30.832 Q 222.973 29.634 222.47 28.392 A 9.339 9.339 0 0 0 222.075 27.539 A 7.624 7.624 0 0 0 220.63 25.592 A 3.064 3.064 0 0 0 220.469 25.447 Q 219.646 24.758 218.175 24.477 A 10.882 10.882 0 0 0 216.79 24.312 A 21.763 21.763 0 0 0 215.494 24.274 Q 214.479 24.274 213.382 24.362 A 34.452 34.452 0 0 0 210.79 24.672 Q 207.47 25.192 204.11 26.312 Q 200.75 27.432 199.07 28.632 Q 197.39 29.832 196.27 30.872 A 23.146 23.146 0 0 0 195.64 31.475 Q 192.417 34.678 192.417 37.403 A 4.544 4.544 0 0 0 192.43 37.752 A 6.437 6.437 0 0 0 192.135 38.696 A 7.52 7.52 0 0 0 191.95 40.392 Q 191.95 41.832 192.35 43.192 A 14.011 14.011 0 0 0 192.54 43.848 Q 193.005 45.32 193.671 46.168 A 3.151 3.151 0 0 0 194.67 47.032 A 5.05 5.05 0 0 0 194.871 47.329 Q 195.756 48.544 197.594 49.627 A 19.152 19.152 0 0 0 199.39 50.552 Q 200.83 51.192 202.23 51.832 A 10.515 10.515 0 0 1 203.295 52.392 A 8.122 8.122 0 0 1 204.59 53.352 A 1.711 1.711 0 0 1 203.728 54.437 Q 201.219 56.014 191.604 55.868 A 125.393 125.393 0 0 1 189.95 55.832 Q 189.07 55.832 188.67 56.512 Q 188.27 57.192 187.95 57.952 A 7.518 7.518 0 0 1 187.777 58.333 A 6.395 6.395 0 0 1 187.19 59.312 Q 186.789 59.859 185.956 59.841 A 2.704 2.704 0 0 1 185.79 59.832 Q 184.35 59.512 183.35 60.152 Q 182.35 60.792 181.95 61.912 Q 181.341 63.984 182.682 66.057 A 9.177 9.177 0 0 0 183.71 67.352 A 11.103 11.103 0 0 0 186.694 69.673 A 15.244 15.244 0 0 0 189.63 70.872 A 24.04 24.04 0 0 0 191.643 71.377 Q 194.524 71.971 197.71 71.912 Q 202.03 71.832 206.31 70.512 A 24.846 24.846 0 0 0 208.253 69.825 Z M 135.11 61.592 Q 134.59 63.272 133.95 64.552 Q 133.31 65.832 132.03 66.952 A 16.431 16.431 0 0 1 130.438 68.174 A 21.369 21.369 0 0 1 128.99 69.072 A 15.846 15.846 0 0 1 127.323 69.9 A 11.616 11.616 0 0 1 125.63 70.472 A 8.456 8.456 0 0 1 125.065 70.576 Q 121.938 71.036 121.79 68.312 Q 121.553 67.521 120.807 67.395 A 1.556 1.556 0 0 0 120.79 67.392 A 4.88 4.88 0 0 1 119.655 67.074 A 4.445 4.445 0 0 1 119.39 66.952 Q 117.838 66.287 118.335 63.505 A 10.791 10.791 0 0 1 118.43 63.032 Q 119.31 60.007 120.304 56.093 A 347.189 347.189 0 0 0 121.23 52.352 Q 122.75 46.072 125.15 38.552 Q 130.83 20.312 139.23 5.672 A 14.961 14.961 0 0 0 139.663 5.084 Q 139.859 4.805 140.071 4.482 A 32.919 32.919 0 0 0 140.51 3.792 A 8.989 8.989 0 0 1 142.043 1.946 A 10.306 10.306 0 0 1 142.35 1.672 A 6.047 6.047 0 0 1 146.553 0 Q 147.283 0 148.063 0.158 A 9.878 9.878 0 0 1 149.23 0.472 Q 149.15 1.512 149.71 2.352 Q 150.27 3.192 150.99 4.072 A 9.932 9.932 0 0 1 151.809 5.122 Q 152.789 6.587 152.67 7.832 A 323.702 323.702 0 0 0 143.662 31.915 A 414.763 414.763 0 0 0 137.39 52.712 Q 136.778 54.917 136.353 56.7 A 70.686 70.686 0 0 0 136.11 57.752 A 58.865 58.865 0 0 1 135.652 59.671 Q 135.42 60.571 135.179 61.367 A 35.212 35.212 0 0 1 135.11 61.592 Z M 81.39 30.392 L 81.71 30.472 A 0.481 0.481 0 0 1 81.764 30.475 Q 81.87 30.487 81.87 30.552 A 3.612 3.612 0 0 1 82.45 30.38 Q 84.084 30.05 85.226 31.632 A 5.199 5.199 0 0 1 85.31 31.752 A 6.261 6.261 0 0 1 85.821 32.743 Q 86.267 33.812 86.574 35.384 A 23.611 23.611 0 0 1 86.67 35.912 Q 86.824 39.602 85.944 46.024 A 132.11 132.11 0 0 1 85.87 46.552 A 1587.027 1587.027 0 0 0 85.239 51.321 Q 84.165 59.543 83.925 62.25 A 25.66 25.66 0 0 0 83.87 62.952 A 4.121 4.121 0 0 1 83.877 63.187 Q 83.877 65.544 81.065 66.584 A 9.143 9.143 0 0 1 80.43 66.792 Q 77.31 67.752 74.19 66.712 Q 71.03 65.633 71.435 63.439 A 3.151 3.151 0 0 1 71.47 63.272 Q 70.83 64.472 70.19 64.992 A 4.788 4.788 0 0 1 69.793 65.277 Q 69.113 65.721 67.798 66.369 A 45.721 45.721 0 0 1 67.67 66.432 A 12.016 12.016 0 0 1 66.269 67.001 Q 64.768 67.512 62.654 67.898 A 40.629 40.629 0 0 1 62.35 67.952 A 27.253 27.253 0 0 1 57.659 68.361 A 26.973 26.973 0 0 1 55.47 68.272 Q 52.03 67.992 49.19 66.592 A 7.386 7.386 0 0 1 46.59 64.523 A 7.37 7.37 0 0 1 45.39 62.232 A 17.026 17.026 0 0 1 44.691 58.809 Q 44.246 54.536 45.532 48.966 A 49.403 49.403 0 0 1 45.87 47.592 Q 47.47 41.752 51.63 37.272 Q 56.43 32.152 62.51 28.792 A 28.552 28.552 0 0 1 66.715 26.906 A 21.103 21.103 0 0 1 71.31 25.832 Q 72.372 25.714 73.238 25.813 A 5.759 5.759 0 0 1 73.83 25.912 Q 74.91 26.152 76.15 26.392 Q 77.39 26.632 78.51 27.112 Q 79.978 27.723 80.697 28.563 A 2.735 2.735 0 0 1 81.39 30.392 Z M 421.71 30.392 L 422.03 30.472 A 0.481 0.481 0 0 1 422.084 30.475 Q 422.19 30.487 422.19 30.552 A 3.612 3.612 0 0 1 422.77 30.38 Q 424.404 30.05 425.546 31.632 A 5.199 5.199 0 0 1 425.63 31.752 A 6.261 6.261 0 0 1 426.141 32.743 Q 426.587 33.812 426.894 35.384 A 23.611 23.611 0 0 1 426.99 35.912 Q 427.144 39.602 426.264 46.024 A 132.11 132.11 0 0 1 426.19 46.552 A 1587.027 1587.027 0 0 0 425.559 51.321 Q 424.485 59.543 424.245 62.25 A 25.66 25.66 0 0 0 424.19 62.952 A 4.121 4.121 0 0 1 424.197 63.187 Q 424.197 65.544 421.385 66.584 A 9.143 9.143 0 0 1 420.75 66.792 Q 417.63 67.752 414.51 66.712 Q 411.35 65.633 411.755 63.439 A 3.151 3.151 0 0 1 411.79 63.272 Q 411.15 64.472 410.51 64.992 A 4.788 4.788 0 0 1 410.113 65.277 Q 409.433 65.721 408.118 66.369 A 45.721 45.721 0 0 1 407.99 66.432 A 12.016 12.016 0 0 1 406.589 67.001 Q 405.088 67.512 402.974 67.898 A 40.629 40.629 0 0 1 402.67 67.952 A 27.253 27.253 0 0 1 397.979 68.361 A 26.973 26.973 0 0 1 395.79 68.272 Q 392.35 67.992 389.51 66.592 A 7.386 7.386 0 0 1 386.91 64.523 A 7.37 7.37 0 0 1 385.71 62.232 A 17.026 17.026 0 0 1 385.011 58.809 Q 384.566 54.536 385.852 48.966 A 49.403 49.403 0 0 1 386.19 47.592 Q 387.79 41.752 391.95 37.272 Q 396.75 32.152 402.83 28.792 A 28.552 28.552 0 0 1 407.035 26.906 A 21.103 21.103 0 0 1 411.63 25.832 Q 412.692 25.714 413.558 25.813 A 5.759 5.759 0 0 1 414.15 25.912 Q 415.23 26.152 416.47 26.392 Q 417.71 26.632 418.83 27.112 Q 420.298 27.723 421.017 28.563 A 2.735 2.735 0 0 1 421.71 30.392 Z M 156.508 29.771 A 4.215 4.215 0 0 0 154.11 30.552 A 10.842 10.842 0 0 0 153.786 30.781 Q 151.325 32.593 149.159 36.268 A 37.992 37.992 0 0 0 147.27 39.952 Q 144.19 46.792 143.87 53.512 A 32.261 32.261 0 0 0 143.843 53.993 Q 143.642 58.171 144.617 61.099 A 9.945 9.945 0 0 0 146.67 64.712 Q 149.47 67.912 153.79 68.792 Q 155.79 69.192 157.91 69.232 Q 160.03 69.272 162.59 69.192 Q 165.15 69.112 168.35 68.432 A 11.919 11.919 0 0 0 171.66 67.179 A 15.464 15.464 0 0 0 174.43 65.192 A 27.455 27.455 0 0 0 179.969 58.521 A 33.895 33.895 0 0 0 183.39 50.472 A 36.065 36.065 0 0 0 184.193 47.26 Q 185.494 40.772 183.95 35.112 A 9.996 9.996 0 0 0 181.384 30.094 A 12.345 12.345 0 0 0 178.27 27.752 A 13.817 13.817 0 0 0 176.096 26.785 A 17.424 17.424 0 0 0 173.27 26.072 A 25.339 25.339 0 0 0 173.163 26.054 Q 170.393 25.598 168.43 25.912 A 71.206 71.206 0 0 1 167.541 26.049 Q 166.168 26.251 165.31 26.312 Q 162.88 26.402 161.26 27.58 A 6.583 6.583 0 0 0 159.23 30.072 Q 158.75 30.072 158.27 29.992 A 7.444 7.444 0 0 0 157.534 29.84 Q 157.001 29.758 156.508 29.771 Z M 309.708 29.771 A 4.215 4.215 0 0 0 307.31 30.552 A 10.842 10.842 0 0 0 306.986 30.781 Q 304.525 32.593 302.359 36.268 A 37.992 37.992 0 0 0 300.47 39.952 Q 297.39 46.792 297.07 53.512 A 32.261 32.261 0 0 0 297.043 53.993 Q 296.842 58.171 297.817 61.099 A 9.945 9.945 0 0 0 299.87 64.712 Q 302.67 67.912 306.99 68.792 Q 308.99 69.192 311.11 69.232 Q 313.23 69.272 315.79 69.192 Q 318.35 69.112 321.55 68.432 A 11.919 11.919 0 0 0 324.86 67.179 A 15.464 15.464 0 0 0 327.63 65.192 A 27.455 27.455 0 0 0 333.169 58.521 A 33.895 33.895 0 0 0 336.59 50.472 A 36.065 36.065 0 0 0 337.393 47.26 Q 338.694 40.772 337.15 35.112 A 9.996 9.996 0 0 0 334.584 30.094 A 12.345 12.345 0 0 0 331.47 27.752 A 13.817 13.817 0 0 0 329.296 26.785 A 17.424 17.424 0 0 0 326.47 26.072 A 25.339 25.339 0 0 0 326.363 26.054 Q 323.593 25.598 321.63 25.912 A 71.206 71.206 0 0 1 320.741 26.049 Q 319.368 26.251 318.51 26.312 Q 316.08 26.402 314.46 27.58 A 6.583 6.583 0 0 0 312.43 30.072 Q 311.95 30.072 311.47 29.992 A 7.444 7.444 0 0 0 310.734 29.84 Q 310.201 29.758 309.708 29.771 Z M 93.23 41.432 L 95.95 31.592 A 11.601 11.601 0 0 1 97.047 29.429 A 8.295 8.295 0 0 1 99.11 27.232 A 12.989 12.989 0 0 1 100.711 26.23 Q 101.602 25.764 102.461 25.526 A 7.171 7.171 0 0 1 103.03 25.392 Q 104.262 25.156 105.219 25.418 A 3.328 3.328 0 0 1 106.15 25.832 A 2.107 2.107 0 0 1 106.766 26.419 Q 107.265 27.158 106.99 28.312 A 10.206 10.206 0 0 1 108.385 27.161 Q 109.128 26.645 110.048 26.16 A 22.452 22.452 0 0 1 111.39 25.512 Q 114.27 24.232 115.95 23.752 A 15.353 15.353 0 0 1 117.096 23.469 Q 117.639 23.358 118.12 23.31 A 7.095 7.095 0 0 1 118.83 23.272 A 3.674 3.674 0 0 1 119.541 23.378 Q 121.289 23.839 120.364 26.119 A 6.858 6.858 0 0 1 120.35 26.152 A 2.446 2.446 0 0 1 122.023 27.289 A 3.918 3.918 0 0 1 122.35 27.912 A 4.697 4.697 0 0 1 122.716 29.754 Q 122.716 30.255 122.619 30.785 A 6.784 6.784 0 0 1 122.51 31.272 A 6.995 6.995 0 0 1 121.679 33.176 Q 121.225 33.913 120.57 34.636 A 12.423 12.423 0 0 1 120.35 34.872 A 7.895 7.895 0 0 1 117.722 36.667 A 10.767 10.767 0 0 1 115.83 37.272 Q 112.99 37.912 111.11 40.192 A 19.832 19.832 0 0 0 109.289 42.83 Q 108.5 44.183 107.812 45.781 A 32.089 32.089 0 0 0 107.79 45.832 A 45.171 45.171 0 0 0 106.337 49.843 Q 105.008 54.07 103.846 59.945 A 158.021 158.021 0 0 0 103.47 61.912 A 7.461 7.461 0 0 1 101.51 65.762 Q 100.265 67.112 98.27 68.232 A 15.294 15.294 0 0 1 96.038 69.297 Q 94.219 69.979 92.54 69.979 A 7.852 7.852 0 0 1 90.35 69.672 A 5.528 5.528 0 0 1 88.485 68.797 Q 86.399 67.239 86.75 63.672 Q 86.91 60.232 88.83 54.512 Q 90.3 50.133 91.254 47.394 A 237.885 237.885 0 0 1 91.79 45.872 Q 92.83 42.952 93.23 41.432 Z M 360.19 48.472 L 359.47 50.152 Q 358.67 52.232 357.95 54.392 Q 357.23 56.552 356.35 58.632 A 9.529 9.529 0 0 1 356.894 59.221 Q 357.161 59.536 357.36 59.839 A 4.844 4.844 0 0 1 357.55 60.152 A 34.438 34.438 0 0 0 362.053 55.328 Q 363.941 52.896 365.656 49.926 A 56.371 56.371 0 0 0 365.71 49.832 A 17.986 17.986 0 0 0 367.107 46.573 A 15.169 15.169 0 0 0 367.59 44.552 Q 367.987 42.17 367.831 41.351 A 1.244 1.244 0 0 0 367.79 41.192 Q 367.67 40.83 367.479 40.65 A 0.632 0.632 0 0 0 367.03 40.472 A 2.058 2.058 0 0 0 366.283 40.617 A 2.586 2.586 0 0 0 365.99 40.752 Q 365.622 40.95 365.374 41.148 A 2.228 2.228 0 0 0 365.19 41.312 Q 364.917 41.585 365.215 41.363 A 5.268 5.268 0 0 0 365.23 41.352 Q 364.655 42.032 364.285 42.592 A 6.601 6.601 0 0 0 363.95 43.152 A 3.716 3.716 0 0 0 363.709 43.739 Q 363.497 44.396 363.39 45.352 A 7.216 7.216 0 0 1 362.305 46.776 Q 361.45 47.662 360.19 48.472 Z M 166.355 47.076 A 12.437 12.437 0 0 0 168.19 46.632 A 20.679 20.679 0 0 1 168.244 47.091 Q 168.419 48.766 168.297 50.298 A 13.494 13.494 0 0 1 167.31 54.472 Q 166.59 56.312 165.27 57.672 Q 163.95 59.032 162.43 59.512 Q 160.91 59.992 157.71 59.672 A 6.085 6.085 0 0 1 157.561 59.282 Q 157.17 58.147 157.305 57.023 A 5.307 5.307 0 0 1 157.71 55.552 Q 158.59 53.512 159.95 51.592 A 0.025 0.025 0 0 0 159.956 51.61 Q 160.031 51.692 161.07 50.912 A 9.087 9.087 0 0 0 161.818 50.287 A 7.216 7.216 0 0 0 162.87 49.072 Q 163.55 48.072 164.43 47.192 A 8.678 8.678 0 0 0 164.824 47.201 Q 165.569 47.201 166.355 47.076 Z M 319.555 47.076 A 12.437 12.437 0 0 0 321.39 46.632 A 20.679 20.679 0 0 1 321.444 47.091 Q 321.619 48.766 321.497 50.298 A 13.494 13.494 0 0 1 320.51 54.472 Q 319.79 56.312 318.47 57.672 Q 317.15 59.032 315.63 59.512 Q 314.11 59.992 310.91 59.672 A 6.085 6.085 0 0 1 310.761 59.282 Q 310.37 58.147 310.505 57.023 A 5.307 5.307 0 0 1 310.91 55.552 Q 311.79 53.512 313.15 51.592 A 0.025 0.025 0 0 0 313.156 51.61 Q 313.231 51.692 314.27 50.912 A 9.087 9.087 0 0 0 315.018 50.287 A 7.216 7.216 0 0 0 316.07 49.072 Q 316.75 48.072 317.63 47.192 A 8.678 8.678 0 0 0 318.024 47.201 Q 318.769 47.201 319.555 47.076 Z M 66.59 51.592 A 8.991 8.991 0 0 0 67.027 50.547 Q 67.302 49.763 67.51 48.792 Q 67.87 47.112 68.51 45.112 Q 63.359 47.21 60.129 50.067 A 18.656 18.656 0 0 0 58.59 51.592 A 12.107 12.107 0 0 0 57.838 52.523 Q 55.538 55.703 58.451 57.163 A 6.528 6.528 0 0 0 59.07 57.432 A 9.954 9.954 0 0 0 60.025 57.634 Q 61.519 57.87 62.629 57.508 A 3.688 3.688 0 0 0 64.43 56.232 Q 65.15 55.272 65.71 53.832 A 27.338 27.338 0 0 1 66.594 51.814 A 32.057 32.057 0 0 1 67.07 50.872 A 9.322 9.322 0 0 1 66.8 51.297 A 7.398 7.398 0 0 1 66.59 51.592 Z M 406.91 51.592 A 8.991 8.991 0 0 0 407.347 50.547 Q 407.622 49.763 407.83 48.792 Q 408.19 47.112 408.83 45.112 Q 403.679 47.21 400.449 50.067 A 18.656 18.656 0 0 0 398.91 51.592 A 12.107 12.107 0 0 0 398.158 52.523 Q 395.858 55.703 398.771 57.163 A 6.528 6.528 0 0 0 399.39 57.432 A 9.954 9.954 0 0 0 400.345 57.634 Q 401.839 57.87 402.949 57.508 A 3.688 3.688 0 0 0 404.75 56.232 Q 405.47 55.272 406.03 53.832 A 27.338 27.338 0 0 1 406.914 51.814 A 32.057 32.057 0 0 1 407.39 50.872 A 9.322 9.322 0 0 1 407.12 51.297 A 7.398 7.398 0 0 1 406.91 51.592 Z" vector-effect="non-scaling-stroke"/></g></svg>