<svg width="1126pt" height="150pt" viewBox="0 0 1126 150" xmlns="http://www.w3.org/2000/svg"><g id="fontsvg1699259615147" stroke-linecap="round" fill-rule="evenodd" stroke="#559d9a" stroke-width="0mm" fill="#e4e4e4"><path d="M 303 112.5 L 281.4 75 L 324.75 75 L 346.35 112.5 L 324.75 150 L 238.05 150 L 216.45 112.5 L 281.4 0 L 367.95 0 L 389.7 37.5 L 303 37.5 L 259.8 112.5 L 303 112.5 Z M 411.3 112.5 L 454.5 112.5 L 476.25 150 L 389.55 150 L 367.95 112.5 L 432.9 0 L 519.45 0 L 541.2 37.5 L 454.5 37.5 L 443.7 56.25 L 487.05 56.25 L 465.3 93.75 L 422.1 93.75 L 411.3 112.5 Z M 562.8 112.5 L 606 112.5 L 627.75 150 L 541.05 150 L 519.45 112.5 L 584.4 0 L 670.95 0 L 692.7 37.5 L 606 37.5 L 595.2 56.25 L 638.55 56.25 L 616.8 93.75 L 573.6 93.75 L 562.8 112.5 Z M 800.85 112.5 L 822.45 150 L 909.15 150 L 887.4 112.5 L 844.2 112.5 L 855 93.75 L 898.2 93.75 L 919.95 56.25 L 876.6 56.25 L 887.4 37.5 L 974.1 37.5 L 952.35 0 L 865.8 0 L 800.85 112.5 Z M 216.45 0 L 238.2 37.5 L 173.25 150 L 129.9 75 L 108.3 112.5 L 129.9 150 L 86.55 150 L 64.95 112.5 L 129.9 0 L 173.25 75 L 216.45 0 Z M 1103.85 0 L 1125.6 37.5 L 1038.9 37.5 L 995.7 112.5 L 1082.25 112.5 L 1060.65 150 L 973.95 150 L 952.35 112.5 L 1017.3 0 L 1103.85 0 Z M 670.95 112.5 L 735.9 0 L 779.25 0 L 714.3 112.5 L 800.85 112.5 L 779.25 150 L 692.55 150 L 670.95 112.5 Z M 64.95 0 L 86.55 37.5 L 43.35 112.5 L 64.95 150 L 21.6 150 L 0 112.5 L 64.95 0 Z" vector-effect="non-scaling-stroke"/></g></svg>